<svg xmlns="http://www.w3.org/2000/svg" version="1.0" width="2480.000000pt" height="3508.000000pt" viewBox="0 0 2480.000000 3508.000000" preserveAspectRatio="xMidYMid meet">

<g transform="translate(0.000000,3508.000000) scale(0.100000,-0.100000)" fill="#008080" stroke="none">
<path d="M12550 31694 c-709 -42 -1408 -196 -2040 -449 -211 -84 -371 -161 -585 -278 -261 -144 -304 -170 -465 -275 -195 -128 -288 -198 -579 -437 -193 -158 -553 -514 -760 -750 -538 -615 -927 -1431 -1085 -2275 -62 -332 -81 -562 -73 -914 8 -372 39 -653 104 -944 13 -63 23 -115 21 -117 -1 -1 -37 -17 -78 -35 -220 -94 -426 -236 -586 -402 -319 -330 -512 -730 -591 -1221 -24 -151 -23 -578 1 -782 58 -480 193 -898 420 -1300 25 -44 46 -83 46 -87 0 -4 -51 19 -112 50 -298 152 -562 238 -913 297 -279 46 -442 50 -730 15 -318 -37 -614 -147 -902 -334 -115 -74 -220 -161 -333 -275 -326 -330 -527 -740 -606 -1236 -22 -138 -25 -491 -6 -645 39 -304 133 -612 273 -895 166 -335 593 -799 984 -1068 283 -195 503 -307 728 -370 49 -14 90 -26 91 -28 2 -2 15 -50 30 -107 48 -190 144 -352 300 -507 272 -271 632 -417 1061 -432 207 -7 349 11 504 63 56 20 104 34 106 32 2 -2 -23 -82 -55 -178 -398 -1183 -298 -2396 288 -3493 28 -54 52 -107 52 -117 0 -10 -73 -99 -162 -197 -89 -98 -223 -245 -297 -328 -75 -82 -197 -217 -272 -300 -75 -82 -212 -233 -304 -335 -159 -175 -191 -207 -200 -198 -2 2 -30 85 -61 183 -31 99 -73 214 -93 255 -21 41 -46 96 -56 122 -55 147 -216 214 -351 145 -103 -52 -169 -155 -220 -342 -27 -98 -28 -107 -32 -440 -4 -383 4 -487 48 -613 35 -102 63 -150 128 -222 87 -97 187 -134 321 -118 72 8 166 49 277 121 61 39 95 74 235 244 199 242 205 248 405 448 137 136 595 612 909 943 l90 95 120 -144 c144 -175 474 -507 645 -650 559 -470 1196 -828 1915 -1079 595 -207 1211 -330 1865 -371 234 -15 877 -6 1085 15 1215 121 2289 491 3220 1109 134 89 373 261 436 315 13 11 56 46 94 78 39 32 123 106 188 164 65 58 125 106 133 108 8 2 119 -72 247 -165 127 -93 315 -227 416 -299 101 -71 348 -246 550 -390 648 -461 726 -515 941 -650 183 -115 230 -137 292 -137 58 -1 95 17 123 60 13 20 17 51 18 132 l2 106 -57 90 c-32 50 -83 122 -115 161 -75 92 -245 295 -264 314 -8 8 -73 78 -144 155 -204 222 -253 275 -329 355 -39 41 -127 136 -196 210 -69 74 -199 214 -290 310 -150 160 -277 296 -447 484 -36 39 -60 73 -56 80 4 6 44 67 88 136 425 656 668 1331 751 2082 36 320 20 795 -36 1128 -63 371 -261 941 -470 1355 -149 295 -271 484 -483 750 -181 226 -270 320 -332 350 -30 15 -57 30 -59 34 -2 3 0 83 5 176 15 329 28 786 40 1430 l12 650 32 40 c18 22 90 103 162 180 71 77 143 156 160 175 17 19 85 96 152 170 66 74 178 203 248 285 70 83 164 191 208 240 126 140 484 574 821 995 193 240 520 675 639 850 54 80 115 168 135 195 49 67 217 332 280 442 132 227 249 520 280 699 18 99 9 247 -17 305 -31 69 -196 244 -261 276 -109 53 -223 42 -417 -43 -168 -74 -250 -124 -680 -417 -72 -48 -283 -207 -415 -312 -52 -41 -180 -137 -284 -213 -404 -293 -586 -436 -891 -696 -63 -54 -118 -96 -121 -93 -7 6 -22 190 -17 200 2 4 12 7 21 7 41 0 122 61 164 122 23 35 81 113 128 173 106 135 159 213 285 425 338 566 554 1210 642 1915 25 201 26 849 0 1047 -94 741 -315 1374 -695 1993 -439 712 -1091 1341 -1857 1790 -769 450 -1600 714 -2555 810 -148 15 -776 28 -930 19z m1210 -505 c841 -120 1669 -437 2345 -896 124 -84 135 -95 135 -134 0 -45 49 -167 107 -268 165 -285 267 -543 338 -852 32 -138 68 -370 59 -378 -4 -3 -9 -1 -11 5 -11 31 -197 327 -307 487 -174 256 -303 414 -509 622 -241 244 -410 392 -672 588 -373 279 -826 532 -1235 690 -118 46 -370 129 -427 142 -18 3 -35 11 -39 16 -6 10 -5 10 216 -22z m-1610 15 c0 -3 -12 -21 -26 -40 -61 -80 -35 -166 66 -217 92 -46 172 -57 470 -67 288 -9 394 -21 620 -71 304 -66 587 -168 915 -329 683 -336 1217 -767 1816 -1465 165 -194 300 -389 456 -660 117 -205 265 -502 271 -547 6 -48 -10 -175 -49 -378 -31 -158 -102 -450 -118 -477 -6 -11 -18 16 -40 88 -86 278 -247 670 -373 909 -164 311 -233 430 -360 623 -220 332 -416 575 -683 842 -547 548 -1272 954 -1961 1099 -459 96 -844 95 -1072 -4 -29 -12 -55 -20 -58 -18 -3 3 -7 37 -11 74 -8 104 12 294 47 435 17 69 29 141 28 159 -3 28 1 35 22 41 33 9 40 10 40 3z m-530 -98 c0 -3 -10 -42 -21 -88 -18 -68 -22 -123 -26 -313 -9 -420 48 -861 203 -1570 335 -1531 1044 -3475 1701 -4665 185 -335 391 -639 550 -811 31 -33 52 -63 47 -67 -5 -5 -34 -29 -65 -54 -41 -35 -63 -63 -83 -107 l-27 -61 -93 0 c-110 0 -91 -15 -278 225 -806 1038 -1567 2548 -2083 4135 -323 991 -483 1858 -454 2451 14 273 66 451 190 648 29 46 34 64 35 118 0 35 3 65 6 68 2 2 80 25 174 49 153 40 224 54 224 42z m-971 -338 c-33 -81 -66 -208 -86 -326 -25 -148 -25 -626 0 -857 131 -1205 678 -2872 1422 -4340 366 -721 722 -1309 1077 -1777 32 -42 58 -82 58 -89 0 -9 -50 -10 -217 -5 -261 9 -251 6 -436 144 -171 128 -340 293 -493 482 -890 1096 -1715 3177 -1903 4800 -69 589 -48 1040 64 1380 34 102 75 282 75 325 0 20 -7 52 -15 72 -8 20 -14 37 -13 38 21 16 458 204 475 205 9 0 6 -16 -8 -52z m-929 -421 c0 -2 -11 -37 -25 -78 -85 -247 -127 -677 -105 -1074 29 -550 110 -1048 274 -1690 410 -1602 1198 -3210 1970 -4023 32 -34 57 -64 55 -67 -5 -4 -463 20 -543 29 -23 3 -49 15 -65 29 -14 14 -67 52 -117 85 -84 55 -99 71 -225 231 -192 246 -241 312 -318 425 -196 288 -416 690 -611 1116 -480 1047 -840 2340 -911 3271 -15 203 -7 600 15 729 9 52 39 160 66 240 26 80 51 164 55 187 9 55 -16 139 -52 177 l-27 29 35 29 c56 47 286 210 404 287 99 64 125 78 125 68z m2440 -186 c36 -6 176 -15 311 -21 245 -10 415 -27 550 -55 363 -77 686 -203 1022 -402 693 -409 1426 -1193 1887 -2018 46 -83 101 -181 123 -220 148 -268 387 -801 387 -863 0 -49 -182 -467 -282 -651 -45 -81 -48 -80 -68 9 -88 395 -271 844 -492 1210 -827 1368 -2111 2457 -3123 2647 -44 8 -147 18 -230 21 l-150 7 -22 145 c-12 80 -22 160 -22 179 -1 30 1 33 22 28 12 -3 51 -11 87 -16z m-3484 -732 c-22 -126 -37 -353 -35 -541 0 -92 -2 -172 -6 -178 -3 -5 -16 -10 -28 -10 -33 0 -116 -42 -175 -89 -240 -191 -563 -847 -772 -1571 -82 -284 -180 -717 -221 -977 -7 -46 -16 -83 -20 -83 -26 0 -22 555 6 815 75 705 308 1361 708 1995 156 247 535 745 553 727 3 -2 -2 -42 -10 -88z m8456 -64 c114 -137 216 -276 313 -423 83 -126 88 -136 95 -205 5 -40 18 -124 29 -187 45 -265 56 -395 55 -675 0 -220 -4 -301 -22 -435 -141 -1050 -573 -2110 -1240 -3040 -219 -305 -566 -678 -791 -849 -62 -47 -123 -94 -135 -103 -15 -13 -54 -20 -146 -27 -270 -22 -695 -39 -706 -29 -2 3 21 25 53 49 32 24 67 51 78 60 11 9 65 54 120 99 546 453 1055 1030 1431 1625 523 828 834 1686 930 2570 24 220 24 681 1 892 -27 239 -68 449 -128 658 -16 55 -29 104 -29 108 0 18 21 -2 92 -88z m-4731 -11 c259 -44 605 -199 934 -418 690 -458 1382 -1197 1862 -1986 122 -201 344 -617 418 -784 123 -275 197 -515 215 -693 l9 -85 -51 -77 c-73 -108 -268 -371 -277 -371 -3 0 -46 118 -95 263 -49 144 -113 315 -143 380 -29 66 -72 162 -94 215 -63 148 -265 543 -394 772 -112 197 -354 571 -500 770 -105 144 -317 412 -419 530 -267 308 -632 642 -891 813 -212 139 -490 247 -641 247 l-52 0 -31 133 c-17 72 -39 168 -50 212 -10 44 -17 83 -14 88 7 12 114 8 214 -9z m16 -750 c57 -31 203 -141 363 -272 116 -96 396 -372 591 -582 264 -286 632 -741 841 -1040 52 -74 133 -190 181 -257 178 -250 528 -820 586 -955 10 -24 57 -122 104 -218 115 -233 176 -397 175 -470 0 -33 6 -69 16 -87 9 -18 16 -38 16 -46 0 -24 -354 -397 -377 -397 -7 0 -13 7 -13 16 0 26 -108 339 -162 469 -192 462 -701 1425 -951 1800 -99 148 -294 418 -368 510 -93 114 -214 247 -272 298 -70 62 -104 95 -163 160 -41 44 -127 99 -262 167 l-109 55 -41 130 c-59 188 -212 721 -212 740 0 9 8 6 57 -21z m-3707 -518 c28 -195 53 -331 101 -558 l42 -197 -69 -73 c-100 -105 -235 -319 -330 -524 -76 -162 -173 -485 -240 -794 -32 -149 -88 -459 -96 -535 -3 -27 -7 -30 -35 -29 -199 3 -250 6 -261 13 -16 10 -7 117 34 421 102 745 333 1540 599 2056 96 187 217 375 232 361 1 -2 12 -65 23 -141z m9380 -720 c60 -292 89 -697 71 -1006 -29 -519 -129 -970 -321 -1450 -55 -139 -223 -483 -295 -607 -103 -176 -295 -469 -328 -501 -23 -22 -48 -35 -86 -42 -29 -5 -77 -23 -106 -40 -95 -54 -279 -111 -435 -135 -25 -3 -58 -11 -75 -16 -44 -13 -328 -59 -334 -54 -2 3 35 44 83 92 519 516 998 1281 1339 2138 222 557 375 1112 432 1565 17 140 22 166 30 158 3 -2 14 -48 25 -102z m-5180 -283 c139 -128 316 -360 590 -772 468 -705 738 -1202 1101 -2031 66 -151 78 -211 48 -246 -8 -10 -51 -48 -97 -87 -64 -53 -88 -68 -105 -63 -21 5 -111 98 -203 211 -23 28 -84 115 -137 195 -373 567 -808 1504 -1201 2593 -104 287 -104 300 4 200z m-3919 -275 c61 -211 149 -485 211 -662 l69 -199 -54 -56 c-62 -63 -93 -113 -137 -221 -38 -92 -96 -312 -104 -400 -10 -95 -16 -120 -29 -120 -7 0 -61 19 -122 43 -60 24 -145 54 -187 67 -92 28 -87 12 -58 205 55 360 115 601 280 1120 78 247 95 295 105 295 2 0 14 -33 26 -72z m534 -1490 c96 -221 154 -343 267 -566 59 -117 108 -216 108 -218 0 -7 -7 -1 -176 135 -70 57 -172 133 -225 168 -54 36 -100 71 -103 78 -11 29 50 535 64 535 4 0 33 -60 65 -132z m-1451 -253 c512 -61 1016 -285 1491 -663 66 -53 195 -170 286 -261 254 -254 390 -423 539 -671 51 -85 108 -176 127 -202 27 -37 35 -59 37 -96 2 -57 24 -95 68 -122 27 -16 49 -19 133 -17 96 2 103 0 170 -32 147 -71 339 -309 465 -574 109 -230 143 -371 144 -592 1 -153 -1 -166 -33 -280 -19 -66 -37 -145 -40 -175 -9 -85 5 -375 29 -575 19 -161 27 -232 60 -480 5 -38 30 -212 55 -385 25 -173 57 -400 70 -505 13 -104 29 -221 34 -260 39 -269 84 -571 101 -685 11 -74 25 -164 30 -200 5 -36 16 -103 25 -150 8 -47 15 -96 15 -110 0 -19 -51 -79 -201 -240 -111 -118 -207 -218 -214 -223 -14 -7 -23 3 -97 108 -118 167 -178 248 -219 297 -27 32 -67 91 -90 130 -86 149 -125 214 -154 259 -16 25 -37 60 -47 77 -30 56 -85 86 -204 110 -163 34 -249 66 -375 139 -63 36 -154 89 -202 117 -109 62 -239 181 -272 247 -51 101 -75 179 -75 249 0 109 -14 122 -250 240 -85 43 -118 57 -320 136 -161 62 -333 144 -485 229 -55 31 -154 85 -220 119 -364 191 -366 192 -520 300 -320 223 -576 428 -689 551 -44 48 -154 155 -245 237 -310 282 -363 337 -422 443 -257 463 -429 986 -470 1425 -28 298 27 707 132 995 44 122 145 318 216 418 187 266 491 488 815 595 263 87 512 111 802 77z m11786 -647 c23 -52 35 -67 78 -97 17 -12 32 -27 32 -33 0 -30 -289 -507 -472 -778 -120 -179 -403 -567 -545 -749 -377 -481 -490 -621 -803 -986 -80 -93 -183 -215 -229 -270 -46 -54 -136 -158 -201 -230 -65 -71 -154 -171 -197 -221 -76 -90 -228 -258 -448 -499 -61 -66 -187 -203 -280 -305 -339 -370 -658 -702 -1171 -1220 -611 -616 -846 -847 -1404 -1375 -249 -236 -594 -554 -785 -725 -77 -68 -180 -161 -230 -205 -260 -232 -701 -609 -1015 -866 -786 -645 -1458 -1103 -1867 -1273 -92 -38 -103 -36 -167 37 -110 125 -246 307 -246 330 0 46 143 249 448 637 148 188 666 788 868 1005 56 61 124 137 151 170 94 113 414 463 618 675 797 827 2050 2071 2800 2781 60 57 155 147 210 199 142 134 424 399 539 505 543 501 962 877 1460 1308 579 501 706 608 898 764 101 82 211 175 406 343 476 410 549 470 722 588 41 28 122 86 180 127 218 159 591 400 623 404 4 1 16 -18 27 -41z m-2785 -1165 c-5 -29 -25 -282 -25 -315 0 -23 -5 -28 -200 -198 -160 -140 -209 -184 -350 -311 -47 -42 -103 -91 -125 -110 -39 -33 -307 -273 -395 -353 -25 -23 -169 -154 -320 -291 -283 -256 -382 -348 -770 -709 -792 -738 -1428 -1354 -2221 -2151 -240 -242 -440 -438 -443 -435 -3 3 -30 181 -61 395 -82 566 -93 644 -105 705 -6 30 -15 84 -20 120 -29 190 -51 340 -70 470 -88 606 -153 971 -216 1212 l-25 96 33 44 c47 61 84 150 104 248 24 121 15 373 -20 520 -60 255 -173 516 -301 695 -36 50 -65 94 -65 98 0 4 15 5 33 3 34 -6 478 -29 887 -46 405 -18 1594 -24 1985 -11 755 25 1381 73 1831 140 110 17 220 35 245 40 24 5 75 15 114 21 90 14 284 71 388 114 105 43 118 44 112 9z m-11720 -1833 c388 -71 722 -213 1103 -468 64 -43 140 -92 167 -107 67 -39 258 -217 359 -335 105 -124 236 -272 250 -285 23 -20 156 -174 263 -305 62 -74 144 -173 184 -220 88 -105 119 -151 247 -362 55 -92 153 -242 216 -334 64 -91 137 -205 164 -251 72 -129 216 -344 253 -380 72 -68 152 -80 240 -35 51 25 62 27 179 26 108 -1 136 -5 210 -29 99 -32 234 -94 270 -123 14 -11 48 -38 76 -60 28 -22 78 -74 111 -115 69 -86 103 -166 128 -302 12 -68 24 -100 48 -134 62 -86 170 -114 266 -71 57 26 61 26 113 -15 63 -47 258 -165 408 -245 211 -113 355 -192 364 -200 13 -12 -414 -502 -458 -526 -15 -8 -332 -15 -1031 -23 -1971 -24 -2082 -28 -2350 -76 -186 -33 -243 -38 -307 -25 -58 10 -69 9 -143 -14 -84 -26 -140 -38 -290 -61 -388 -62 -832 92 -1041 358 -74 94 -109 173 -138 309 -28 132 -50 182 -100 226 -69 60 -163 64 -238 10 l-40 -30 -97 42 c-154 67 -377 187 -496 265 -266 177 -509 425 -687 701 -39 61 -211 407 -257 518 -221 531 -236 1082 -41 1571 158 400 498 752 896 930 259 115 504 176 769 189 118 6 367 -2 430 -14z m2870 -1608 c17 -10 107 -58 200 -107 94 -49 193 -103 220 -120 120 -77 366 -185 575 -253 239 -78 220 -69 220 -112 0 -88 52 -270 102 -359 42 -73 137 -187 201 -239 29 -23 88 -63 132 -89 44 -25 138 -84 209 -130 194 -127 260 -155 484 -208 71 -17 73 -19 96 -64 26 -50 154 -259 219 -356 22 -33 81 -112 131 -175 129 -162 199 -260 193 -266 -3 -4 -97 39 -209 94 -112 55 -255 122 -318 148 -63 27 -196 90 -295 141 l-180 91 -21 54 c-25 64 -120 230 -179 313 -123 173 -304 336 -456 411 -94 47 -214 91 -319 117 -81 20 -205 24 -383 14 l-38 -2 -96 175 c-52 96 -132 231 -176 300 -159 247 -357 588 -357 614 0 31 5 32 45 8z m8715 -164 c0 -24 -5 -194 -11 -378 -6 -184 -14 -600 -17 -925 l-7 -590 -70 -28 c-285 -115 -574 -188 -1270 -322 -524 -100 -1060 -184 -1075 -168 -3 3 42 50 100 104 488 459 1714 1683 2100 2097 129 138 238 252 243 252 4 0 7 -19 7 -42z m229 -2282 c48 -45 255 -304 335 -421 127 -184 256 -398 341 -565 84 -166 168 -365 163 -381 -2 -5 -30 37 -63 93 -82 144 -279 435 -368 546 -214 268 -444 476 -685 624 l-96 58 55 24 c30 13 74 33 98 44 37 17 58 19 115 15 62 -5 75 -10 105 -37z m-818 -245 c24 -15 88 -55 141 -89 315 -196 715 -600 966 -974 223 -334 441 -782 566 -1165 70 -215 84 -264 116 -422 11 -57 32 -125 45 -152 l25 -48 -15 -113 c-31 -241 -94 -510 -175 -748 -50 -150 -153 -407 -169 -423 -6 -6 -12 14 -16 49 -66 577 -216 1166 -462 1819 -387 1029 -943 1834 -1458 2115 -33 18 -64 36 -69 40 -10 10 -5 11 154 49 69 17 163 43 210 60 47 16 88 30 91 30 3 1 25 -12 50 -28z m-1086 -252 c9 -41 59 -95 98 -108 18 -5 66 -15 107 -20 316 -46 724 -486 1141 -1233 413 -739 716 -1602 864 -2461 69 -400 82 -594 45 -654 -11 -18 -22 -33 -24 -33 -5 0 -388 408 -445 474 -23 26 -44 59 -47 74 -47 221 -233 816 -333 1067 -287 721 -610 1326 -973 1822 -109 149 -94 130 -234 298 -205 248 -419 461 -666 664 -43 35 -78 67 -78 71 0 4 46 13 103 20 56 7 174 22 262 34 88 12 163 21 167 19 3 -2 9 -17 13 -34z m-928 -205 c332 -299 521 -495 773 -803 208 -254 460 -608 664 -935 93 -149 292 -507 388 -699 106 -213 338 -770 325 -783 -2 -2 -55 51 -118 118 -63 68 -152 164 -199 213 -47 50 -148 157 -225 240 -77 82 -183 195 -236 250 -90 94 -247 262 -505 540 -145 156 -143 154 -267 337 -203 302 -386 541 -597 782 -132 149 -450 461 -547 536 -40 30 -72 60 -72 66 -1 11 178 182 221 213 20 13 122 27 225 30 l51 1 119 -106z m-869 -527 c86 -124 339 -422 591 -697 275 -299 854 -923 951 -1025 36 -38 205 -221 375 -405 383 -414 663 -716 860 -925 206 -219 365 -393 365 -400 0 -12 -60 37 -196 162 -261 238 -675 611 -854 768 -62 55 -211 187 -329 294 -415 372 -555 495 -736 646 -71 60 -177 152 -235 205 -58 53 -139 125 -180 160 -41 36 -194 171 -339 300 -145 129 -307 273 -360 320 -53 46 -105 93 -116 103 -11 11 -78 69 -148 130 -70 61 -126 116 -125 122 2 6 39 43 83 81 186 161 188 163 266 183 41 11 79 20 86 20 7 1 25 -18 41 -42z m-3499 -101 c10 -24 25 -60 32 -79 l12 -35 -95 -118 c-52 -66 -139 -182 -192 -259 -54 -77 -101 -141 -105 -143 -12 -4 -23 13 -106 167 -114 210 -239 492 -223 503 7 4 158 8 335 8 l322 0 20 -44z m-1119 -91 c118 -307 299 -666 476 -942 36 -57 37 -60 36 -153 0 -52 -5 -115 -11 -140 -6 -25 -11 -68 -11 -97 0 -52 0 -53 -57 -94 -32 -24 -95 -79 -141 -123 -67 -66 -84 -78 -93 -66 -291 442 -586 1071 -732 1565 -52 176 -57 159 48 166 50 3 168 5 264 5 l175 -1 46 -120z m-1039 95 c4 -8 22 -71 40 -140 145 -555 465 -1262 815 -1803 35 -54 64 -103 64 -110 0 -14 -452 -467 -467 -467 -12 0 -192 351 -273 535 -223 503 -374 995 -441 1440 -23 151 -37 496 -21 535 l10 26 132 -1 c108 0 134 -3 141 -15z m5183 -527 c116 -109 252 -234 301 -278 152 -136 423 -383 570 -520 77 -72 163 -150 190 -174 62 -54 161 -148 330 -311 116 -111 760 -701 933 -854 37 -32 103 -93 147 -135 44 -42 139 -128 210 -191 113 -99 262 -233 592 -531 246 -223 543 -502 539 -506 -2 -3 -71 44 -153 104 -81 60 -233 172 -338 248 -104 76 -212 155 -240 175 -52 39 -270 195 -700 503 -137 98 -270 193 -295 211 -25 18 -106 77 -180 131 -217 159 -669 496 -819 613 -151 117 -1103 816 -1259 924 -53 38 -148 98 -210 134 l-114 67 6 41 c15 99 26 216 26 278 0 55 4 71 23 91 34 37 206 177 218 177 6 0 106 -89 223 -197z m-5859 -243 c48 -273 148 -635 264 -953 116 -317 320 -757 475 -1026 36 -62 66 -119 66 -127 0 -7 -30 -46 -67 -86 -38 -41 -153 -168 -258 -283 -228 -253 -212 -235 -223 -235 -12 0 -139 267 -195 410 -118 303 -200 627 -244 965 -25 199 -25 701 0 900 31 239 94 548 129 633 l11 27 8 -35 c4 -19 20 -105 34 -190z m5149 -456 l39 -46 -33 -86 c-60 -160 -178 -429 -274 -624 -627 -1279 -1612 -2449 -2611 -3101 -135 -87 -303 -187 -317 -187 -11 0 -312 204 -366 248 l-44 36 23 18 c12 11 52 35 88 55 36 20 89 50 116 67 85 53 337 259 462 378 65 62 174 162 241 222 173 153 446 456 682 756 62 80 166 210 229 290 64 80 154 201 200 270 47 69 121 175 166 235 185 250 216 294 273 385 133 211 370 664 463 885 l68 160 33 -2 c18 -1 87 -3 153 -4 131 -3 218 16 300 65 22 13 47 24 55 25 8 0 33 -20 54 -45z m499 -407 c111 -82 256 -189 321 -236 54 -40 58 -45 52 -74 -8 -41 -254 -535 -359 -722 -720 -1282 -1720 -2466 -2573 -3048 l-100 -68 -69 26 c-158 59 -505 217 -505 229 0 2 24 19 53 37 604 380 1292 1031 1830 1731 395 514 721 1039 993 1596 85 173 231 501 248 560 11 33 30 28 109 -31z m-1773 -23 c0 -17 -175 -324 -184 -324 -16 0 -196 117 -196 128 0 4 32 24 71 43 39 19 119 62 178 96 98 58 131 72 131 57z m-983 -283 c24 -17 48 -31 53 -31 6 0 10 -4 10 -9 0 -12 225 -191 300 -240 30 -19 88 -49 128 -67 40 -17 75 -34 78 -37 3 -2 -28 -49 -69 -103 -41 -55 -118 -164 -172 -244 -53 -80 -112 -160 -131 -179 l-33 -34 -53 27 c-52 27 -85 48 -220 137 -129 85 -468 427 -468 472 0 33 244 320 269 315 3 -1 13 1 21 5 60 23 85 26 159 23 74 -4 89 -7 128 -35z m3670 -364 c78 -56 186 -132 240 -169 153 -105 224 -158 229 -173 6 -15 -133 -297 -239 -485 -629 -1114 -1649 -2254 -2533 -2833 -88 -57 -166 -106 -175 -109 -25 -9 -530 99 -548 118 -6 6 3 14 144 126 171 136 301 255 541 493 802 797 1616 1950 2104 2979 41 86 79 156 85 156 5 0 74 -47 152 -103z m-4417 -413 c144 -145 234 -222 376 -321 127 -89 176 -116 242 -138 28 -9 52 -18 52 -20 0 -12 -235 -294 -346 -415 -22 -25 -65 -72 -95 -105 -82 -92 -92 -99 -134 -84 -19 7 -66 38 -104 69 -237 190 -316 258 -387 333 -86 91 -234 269 -234 282 0 9 37 49 304 328 104 108 192 197 196 197 3 0 61 -57 130 -126z m5528 -385 c169 -127 242 -187 242 -201 0 -18 -91 -208 -148 -308 -13 -25 -45 -81 -70 -125 -156 -276 -399 -636 -629 -931 -211 -270 -381 -463 -623 -704 -221 -222 -311 -302 -500 -450 -141 -109 -281 -242 -320 -303 l-35 -54 -170 -6 c-93 -4 -269 -3 -390 3 -121 5 -230 9 -243 10 -13 0 -22 4 -20 9 2 4 53 48 113 96 316 253 398 328 711 640 209 208 383 396 534 575 30 36 61 71 68 78 26 28 242 302 328 417 259 345 493 705 706 1085 14 25 60 114 103 198 42 83 82 152 88 152 7 0 121 -82 255 -181z m-6412 -421 c130 -163 401 -421 506 -482 24 -13 77 -37 118 -52 41 -15 78 -30 83 -34 6 -5 -64 -74 -198 -192 -98 -86 -210 -166 -341 -243 -77 -46 -162 -100 -187 -119 -26 -20 -52 -36 -58 -36 -20 0 -212 194 -384 390 -65 74 -185 229 -185 240 0 6 55 68 123 138 68 70 195 202 283 294 87 92 164 167 170 168 7 0 38 -33 70 -72z m7189 -161 c131 -102 135 -107 157 -237 11 -63 10 -67 -14 -105 -14 -22 -68 -112 -120 -200 -52 -89 -188 -302 -302 -475 l-207 -315 -284 -280 c-297 -292 -324 -327 -325 -406 0 -19 11 -58 25 -85 13 -26 21 -52 16 -57 -16 -16 -407 -128 -616 -175 -142 -33 -424 -84 -441 -80 -11 2 28 41 107 109 147 126 427 404 583 579 499 558 927 1172 1201 1721 26 52 52 100 57 106 13 16 14 15 163 -100z m904 -668 c144 -105 261 -194 261 -199 0 -18 -365 -324 -499 -419 l-33 -24 8 99 c11 125 12 508 1 637 -5 53 -6 97 -3 97 3 0 122 -86 265 -191z m-673 -327 c-12 -259 -37 -405 -97 -559 -47 -119 -24 -101 -328 -254 -189 -95 -251 -123 -251 -115 0 3 48 62 106 133 168 204 318 446 484 781 41 84 79 152 84 152 5 0 6 -58 2 -138z" fill="#008080"/>
<path d="M7624 24429 c-133 -8 -202 -22 -314 -61 -233 -82 -405 -218 -545 -428 -147 -220 -234 -509 -243 -807 -13 -446 82 -817 339 -1323 180 -355 369 -613 641 -878 259 -252 548 -457 841 -596 435 -206 986 -216 1273 -24 41 27 86 65 101 85 15 19 54 53 87 76 162 108 314 319 389 537 144 421 76 1033 -180 1630 -161 374 -413 734 -743 1060 -170 169 -419 361 -606 468 -245 141 -542 239 -779 257 -44 3 -96 7 -115 9 -19 1 -85 -1 -146 -5z m482 -333 c14 -13 28 -96 17 -96 -5 0 -13 4 -19 8 -14 9 -64 89 -64 102 0 13 50 2 66 -14z m-481 -152 c50 -82 124 -194 165 -248 41 -54 80 -106 86 -115 8 -11 9 -43 3 -106 -21 -217 -40 -886 -45 -1570 -4 -407 -9 -741 -14 -743 -19 -7 -284 296 -396 453 -170 239 -313 505 -362 675 -6 19 -24 80 -40 135 -93 307 -125 561 -103 810 14 155 33 244 73 344 74 189 185 326 349 435 60 39 167 88 184 82 6 -1 51 -70 100 -152z m1125 -140 c12 -12 12 -14 0 -14 -53 0 -109 35 -110 68 0 14 79 -25 110 -54z m-285 -399 c249 -69 388 -100 637 -145 123 -23 234 -45 248 -51 44 -17 270 -388 364 -597 163 -363 235 -689 216 -975 -22 -325 -105 -583 -249 -773 -92 -123 -113 -139 -216 -168 -49 -13 -130 -37 -180 -52 -81 -24 -106 -27 -255 -28 -128 -1 -183 3 -245 17 -163 38 -415 132 -522 195 l-45 27 7 290 c3 160 11 371 16 470 7 129 24 1754 19 1839 0 4 8 6 18 3 9 -2 94 -26 187 -52z" fill="#008080"/>
<path d="M4770 20920 c-272 -27 -561 -126 -765 -261 -99 -66 -245 -210 -308 -306 -182 -274 -226 -655 -121 -1053 65 -249 214 -524 422 -786 192 -240 605 -583 917 -762 413 -236 890 -388 1325 -422 74 -6 155 -12 180 -14 131 -12 424 27 593 80 347 109 638 343 696 561 7 24 30 76 51 116 156 290 163 660 19 1025 -119 302 -420 709 -720 979 -244 218 -417 335 -719 487 -355 178 -627 269 -988 331 -164 29 -433 40 -582 25z m577 -285 c256 -37 602 -152 831 -276 43 -23 87 -47 99 -53 13 -6 23 -14 23 -18 0 -5 5 -8 10 -8 6 0 58 -32 117 -71 366 -242 648 -517 831 -810 73 -116 119 -219 166 -368 57 -182 70 -264 70 -456 0 -172 -14 -261 -57 -363 -13 -31 -166 -176 -276 -260 -160 -124 -379 -195 -690 -223 -215 -20 -489 13 -749 91 -408 121 -893 398 -1172 670 -47 45 -224 245 -271 305 -163 207 -288 447 -359 686 -31 106 -39 333 -16 450 44 214 177 414 359 538 122 83 307 147 513 176 120 18 419 12 571 -10z" fill="#008080"/>
</g>
</svg>